#!OML:ASF H:\Martial Arts Walks\Project 1\Capture day 1\Session 1\male.ASF
:FULLY-SPECIFIED
:DEGREES
875
root -3.94996 12.6578 13.8462 -157.353 64.4456 -163.292
lowerback 18.6676 -2.29988 -2.77384
upperback -0.809431 -2.74854 6.40413
thorax -10.9652 -0.824225 9.53461
lowerneck 10.811 -18.3606 -18.9057
upperneck -0.987857 -26.7191 22.2426
head 3.60806 -13.8497 8.45878
rclavicle 4.12478e-014 7.43455e-014
rhumerus -30.2312 26.7905 -63.1593
rradius 108.177
rwrist 3.97854
rhand -25.2002 -44.0639
rfingers 7.12502
rthumb 1.31825 -74.0395
lclavicle 4.12478e-014 7.43455e-014
lhumerus -40.1309 -22.6511 93.7669
lradius 108.41
lwrist 35.7418
lhand -6.64207 6.94737
lfingers 7.12502
lthumb 19.215 36.0181
rfemur -44.633 -18.5406 6.35581
rtibia 84.7643
rfoot -34.4599 -10.4375
rtoes -38.096
lfemur -63.1678 24.449 -5.56242
ltibia 95.6344
lfoot -35.5842 5.72371
ltoes -15.8953
876
root -3.95144 12.6539 13.8485 -157.435 64.4011 -163.325
lowerback 18.6662 -2.34473 -2.76313
upperback -0.799447 -2.80415 6.41482
thorax -10.9429 -0.852009 9.55424
lowerneck 10.6908 -18.3298 -19.0035
upperneck -0.899594 -26.6868 22.2359
head 3.65854 -13.8248 8.4551
rclavicle 4.68138e-014 -1.25234e-013
rhumerus -30.2251 26.7157 -63.0551
rradius 108.178
rwrist 3.84224
rhand -25.3083 -44.123
rfingers 7.12502
rthumb 1.21378 -74.0993
lclavicle 4.68138e-014 -1.25234e-013
lhumerus -40.0286 -22.412 93.5731
lradius 108.436
lwrist 35.873
lhand -6.46662 6.99171
lfingers 7.12502
lthumb 19.3837 36.0456
rfemur -44.5858 -18.5206 6.33298
rtibia 84.8129
rfoot -34.4491 -10.5013
rtoes -38.1709
lfemur -63.1623 24.387 -5.53827
ltibia 95.6684
lfoot -35.5605 5.74271
ltoes -16.0359
877
root -3.95526 12.6483 13.8505 -157.461 64.3424 -163.274
lowerback 18.7322 -2.49662 -2.7802
upperback -0.789427 -2.99319 6.51956
thorax -10.9285 -0.93563 9.74074
lowerneck 10.4856 -18.1868 -19.3843
upperneck -0.700175 -26.5417 22.2106
head 3.76715 -13.7376 8.48139
rclavicle 8.84592e-015 2.38542e-014
rhumerus -29.9818 26.9803 -62.8296
rradius 108.132
rwrist 3.66597
rhand -25.3176 -44.1423
rfingers 7.12502
rthumb 1.20479 -74.1187
lclavicle 8.84592e-015 2.38542e-014
lhumerus -39.9503 -21.8635 93.3241
lradius 108.525
lwrist 36.0205
lhand -6.2707 7.05683
lfingers 7.12502
lthumb 19.5721 36.0917
rfemur -44.5281 -18.4553 6.34177
rtibia 84.8565
rfoot -34.4235 -10.5529
rtoes -38.1895
lfemur -63.1739 24.3652 -5.48138
ltibia 95.7166
lfoot -35.5433 5.68392
ltoes -16.1134
878
root -3.96007 12.6429 13.8519 -157.56 64.2929 -163.313
lowerback 18.7987 -2.54705 -2.83607
upperback -0.792949 -3.06834 6.54749
thorax -10.9521 -0.965042 9.83269
lowerneck 10.3566 -18.1639 -19.402
upperneck -0.591958 -26.5041 22.0899
head 3.79534 -13.7076 8.43641
rclavicle 5.9039e-014 -1.19271e-015
rhumerus -29.9812 26.961 -62.6872
rradius 108.123
rwrist 3.4715
rhand -25.3315 -44.1715
rfingers 7.12502
rthumb 1.19136 -74.1479
lclavicle 5.9039e-014 -1.19271e-015
lhumerus -39.8915 -21.783 93.0693
lradius 108.6
lwrist 36.0627
lhand -6.19234 6.95849
lfingers 7.12502
lthumb 19.6475 35.9856
rfemur -44.4769 -18.3948 6.30089
rtibia 84.8933
rfoot -34.3783 -10.6391
rtoes -38.2422
lfemur -63.1983 24.3188 -5.49039
ltibia 95.7626
lfoot -35.4899 5.70044
ltoes -16.2285
879
root -3.96631 12.6414 13.8521 -157.662 64.2705 -163.336
lowerback 18.8076 -2.24288 -2.70808
upperback -0.837587 -2.67175 6.29686
thorax -11.0988 -0.789154 9.36574
lowerneck 10.9009 -18.4463 -18.7512
upperneck -0.943815 -26.8285 22.211
head 3.60351 -13.9061 8.42391
rclavicle -2.21645e-014 1.98785e-014
rhumerus -30.923 25.8413 -62.877
rradius 108.244
rwrist 3.44238
rhand -25.4632 -44.4718
rfingers 7.12502
rthumb 1.06423 -74.4489
lclavicle -2.21645e-014 1.98785e-014
lhumerus -39.8378 -23.0431 92.8933
lradius 108.602
lwrist 36.26
lhand -6.28141 6.81104
lfingers 7.12502
lthumb 19.5618 35.8469
rfemur -44.4005 -18.2854 6.25648
rtibia 84.9021
rfoot -34.2971 -10.826
rtoes -38.3499
lfemur -63.1559 24.2578 -5.48964
ltibia 95.7814
lfoot -35.4528 5.69673
ltoes -16.2851
880
root -3.97492 12.6404 13.8515 -157.775 64.2416 -163.397
lowerback 18.861 -2.28914 -2.73758
upperback -0.82367 -2.74015 6.29526
thorax -11.0999 -0.820019 9.40306
lowerneck 10.7925 -18.4254 -18.855
upperneck -0.825348 -26.8161 22.1967
head 3.66481 -13.891 8.4153
rclavicle 4.50247e-014 -2.70347e-014
rhumerus -30.9077 25.7146 -62.7888
rradius 108.183
rwrist 3.33306
rhand -25.4987 -44.5709
rfingers 7.12502
rthumb 1.02987 -74.5481
lclavicle 4.50247e-014 -2.70347e-014
lhumerus -39.6467 -22.8792 92.6607
lradius 108.589
lwrist 36.1526
lhand -6.30928 6.75724
lfingers 7.12502
lthumb 19.535 35.7958
rfemur -44.3559 -18.1947 6.20207
rtibia 84.9021
rfoot -34.1931 -11.0425
rtoes -38.5465
lfemur -63.141 24.1464 -5.47466
ltibia 95.7872
lfoot -35.4256 5.38394
ltoes -15.8017
